<svg id="Capa_1" data-name="Capa 1" xmlns="http://www.w3.org/2000/svg" viewBox="0 0 397.42 58.42"><defs><style>.cls-1{fill:#5f4394;}.cls-2{font-size:45px;fill:#fff;font-family:ArialRoundedMTBold, Arial Rounded MT Bold;}</style></defs><path class="cls-1" d="M63.81,83.32c0,5.79,0,11.59,0,17.38,0,2.94-1.63,4.77-4.13,4.73s-4-1.91-4-4.74c0-5.33,0-10.67,0-16,0-2.8-1.54-4.59-3.86-4.61s-4,1.72-4.1,4.6-1.67,4.67-4,4.68-4-1.88-4-4.68c0-5.1,0-10.2,0-15.3A4,4,0,0,1,43,65.27a3.93,3.93,0,0,1,4.32,2.18A7.09,7.09,0,0,1,47.73,70c.12,2.72,1.7,4.52,4,4.5s3.91-1.82,3.94-4.55c0-1.45,0-2.9,0-4.35.07-2.68,1.73-4.41,4.15-4.37s3.91,1.74,3.93,4.37c0,5.91,0,11.82,0,17.74Z" transform="translate(-39.63 -49.13)"/><path class="cls-1" d="M71.83,71.36c0-6,0-12.06,0-18.09a3.87,3.87,0,0,1,3-4,3.81,3.81,0,0,1,4.45,1.85A6.53,6.53,0,0,1,79.91,54c0,5.33,0,10.66,0,16a4,4,0,0,0,2.17,4,3.85,3.85,0,0,0,5.55-2.39,11.13,11.13,0,0,0,.23-2.24,4,4,0,1,1,8.08.09c0,.69,0,1.39,0,2.09,0,4.4,0,8.81,0,13.21,0,2.67-1.66,4.54-4,4.58s-4-1.76-4.13-4.42a11.58,11.58,0,0,0-.12-1.56,3.93,3.93,0,0,0-7.79.45c-.1,1.62,0,3.25-.08,4.87,0,2.91-1.54,4.66-4,4.68s-4-1.71-4-4.61q0-8.7,0-17.39Z" transform="translate(-39.63 -49.13)"/><path class="cls-1" d="M75.81,105.43a4.3,4.3,0,1,1,4.31-4.12A4.27,4.27,0,0,1,75.81,105.43Z" transform="translate(-39.63 -49.13)"/><path class="cls-1" d="M55.53,53.16a4.26,4.26,0,1,1,4,4.53A4.25,4.25,0,0,1,55.53,53.16Z" transform="translate(-39.63 -49.13)"/><text class="cls-2" transform="translate(72.5 43.72)">HarmonyHub</text></svg>